<mxfile host="app.diagrams.net" modified="2021-07-17T09:30:37.565Z" agent="5.0 (Windows NT 10.0; Win64; x64) AppleWebKit/537.36 (KHTML, like Gecko) Chrome/91.0.4472.124 Safari/537.36" etag="8ch8Ce-AY6thFH1sP9rX" version="14.8.6" type="github" pages="3">
  <diagram id="Q7iglQiY9CrFT5oRWhbi" name="Page-1">
    <mxGraphModel dx="782" dy="421" grid="1" gridSize="10" guides="1" tooltips="1" connect="1" arrows="1" fold="1" page="1" pageScale="1" pageWidth="827" pageHeight="1169" math="0" shadow="0">
      <root>
        <mxCell id="0" />
        <mxCell id="1" parent="0" />
        <mxCell id="QZwM-1VOMkJeXKkSIdiu-1" value="Sinh Viên" style="whiteSpace=wrap;html=1;align=center;fillColor=#dae8fc;strokeColor=#6c8ebf;" vertex="1" parent="1">
          <mxGeometry x="190" y="300" width="100" height="40" as="geometry" />
        </mxCell>
        <mxCell id="QZwM-1VOMkJeXKkSIdiu-2" value="Quyển Sách" style="whiteSpace=wrap;html=1;align=center;fillColor=#dae8fc;strokeColor=#6c8ebf;" vertex="1" parent="1">
          <mxGeometry x="190" y="70" width="100" height="40" as="geometry" />
        </mxCell>
        <mxCell id="QZwM-1VOMkJeXKkSIdiu-3" value="Loại sách" style="whiteSpace=wrap;html=1;align=center;fillColor=#dae8fc;strokeColor=#6c8ebf;" vertex="1" parent="1">
          <mxGeometry x="530" y="70" width="100" height="40" as="geometry" />
        </mxCell>
        <mxCell id="QZwM-1VOMkJeXKkSIdiu-4" value="Quyển Sách" style="whiteSpace=wrap;html=1;align=center;fillColor=#dae8fc;strokeColor=#6c8ebf;" vertex="1" parent="1">
          <mxGeometry x="520" y="190" width="100" height="40" as="geometry" />
        </mxCell>
        <mxCell id="QZwM-1VOMkJeXKkSIdiu-5" value="Phiếu mượn sách" style="whiteSpace=wrap;html=1;align=center;fillColor=#dae8fc;strokeColor=#6c8ebf;" vertex="1" parent="1">
          <mxGeometry x="190" y="190" width="100" height="40" as="geometry" />
        </mxCell>
        <mxCell id="QZwM-1VOMkJeXKkSIdiu-6" value="Phiếu mượn sách" style="whiteSpace=wrap;html=1;align=center;fillColor=#dae8fc;strokeColor=#6c8ebf;" vertex="1" parent="1">
          <mxGeometry x="520" y="300" width="100" height="40" as="geometry" />
        </mxCell>
        <mxCell id="QZwM-1VOMkJeXKkSIdiu-7" value="thuộc" style="shape=rhombus;perimeter=rhombusPerimeter;whiteSpace=wrap;html=1;align=center;fillColor=#ffe6cc;strokeColor=#d79b00;" vertex="1" parent="1">
          <mxGeometry x="366" y="65" width="84" height="45" as="geometry" />
        </mxCell>
        <mxCell id="QZwM-1VOMkJeXKkSIdiu-8" value="chứa" style="shape=rhombus;perimeter=rhombusPerimeter;whiteSpace=wrap;html=1;align=center;fillColor=#ffe6cc;strokeColor=#d79b00;" vertex="1" parent="1">
          <mxGeometry x="358" y="190" width="90" height="40" as="geometry" />
        </mxCell>
        <mxCell id="QZwM-1VOMkJeXKkSIdiu-12" value="" style="endArrow=none;html=1;rounded=0;exitX=1;exitY=0.5;exitDx=0;exitDy=0;entryX=0;entryY=0.5;entryDx=0;entryDy=0;startArrow=none;" edge="1" parent="1" source="QZwM-1VOMkJeXKkSIdiu-9" target="QZwM-1VOMkJeXKkSIdiu-6">
          <mxGeometry relative="1" as="geometry">
            <mxPoint x="320" y="250" as="sourcePoint" />
            <mxPoint x="480" y="250" as="targetPoint" />
            <Array as="points" />
          </mxGeometry>
        </mxCell>
        <mxCell id="QZwM-1VOMkJeXKkSIdiu-9" value="có" style="shape=rhombus;perimeter=rhombusPerimeter;whiteSpace=wrap;html=1;align=center;fillColor=#ffe6cc;strokeColor=#d79b00;" vertex="1" parent="1">
          <mxGeometry x="358" y="300" width="100" height="40" as="geometry" />
        </mxCell>
        <mxCell id="QZwM-1VOMkJeXKkSIdiu-13" value="" style="endArrow=none;html=1;rounded=0;exitX=1;exitY=0.5;exitDx=0;exitDy=0;entryX=0;entryY=0.5;entryDx=0;entryDy=0;" edge="1" parent="1" source="QZwM-1VOMkJeXKkSIdiu-1" target="QZwM-1VOMkJeXKkSIdiu-9">
          <mxGeometry relative="1" as="geometry">
            <mxPoint x="290" y="320" as="sourcePoint" />
            <mxPoint x="520" y="320" as="targetPoint" />
            <Array as="points" />
          </mxGeometry>
        </mxCell>
        <mxCell id="QZwM-1VOMkJeXKkSIdiu-15" value="" style="endArrow=none;html=1;rounded=0;exitX=1;exitY=0.5;exitDx=0;exitDy=0;entryX=0;entryY=0.5;entryDx=0;entryDy=0;" edge="1" parent="1" source="QZwM-1VOMkJeXKkSIdiu-5" target="QZwM-1VOMkJeXKkSIdiu-8">
          <mxGeometry relative="1" as="geometry">
            <mxPoint x="320" y="250" as="sourcePoint" />
            <mxPoint x="480" y="250" as="targetPoint" />
          </mxGeometry>
        </mxCell>
        <mxCell id="QZwM-1VOMkJeXKkSIdiu-16" value="" style="endArrow=none;html=1;rounded=0;entryX=0;entryY=0.5;entryDx=0;entryDy=0;exitX=1;exitY=0.5;exitDx=0;exitDy=0;" edge="1" parent="1" source="QZwM-1VOMkJeXKkSIdiu-8" target="QZwM-1VOMkJeXKkSIdiu-4">
          <mxGeometry relative="1" as="geometry">
            <mxPoint x="320" y="250" as="sourcePoint" />
            <mxPoint x="480" y="250" as="targetPoint" />
          </mxGeometry>
        </mxCell>
        <mxCell id="QZwM-1VOMkJeXKkSIdiu-17" value="" style="endArrow=none;html=1;rounded=0;exitX=1;exitY=0.5;exitDx=0;exitDy=0;entryX=0;entryY=0.5;entryDx=0;entryDy=0;" edge="1" parent="1" source="QZwM-1VOMkJeXKkSIdiu-2" target="QZwM-1VOMkJeXKkSIdiu-7">
          <mxGeometry relative="1" as="geometry">
            <mxPoint x="320" y="250" as="sourcePoint" />
            <mxPoint x="480" y="250" as="targetPoint" />
          </mxGeometry>
        </mxCell>
        <mxCell id="QZwM-1VOMkJeXKkSIdiu-18" value="" style="endArrow=none;html=1;rounded=0;exitX=0;exitY=0.5;exitDx=0;exitDy=0;" edge="1" parent="1" source="QZwM-1VOMkJeXKkSIdiu-3" target="QZwM-1VOMkJeXKkSIdiu-7">
          <mxGeometry relative="1" as="geometry">
            <mxPoint x="300" y="100" as="sourcePoint" />
            <mxPoint x="376" y="97.5" as="targetPoint" />
          </mxGeometry>
        </mxCell>
        <mxCell id="QZwM-1VOMkJeXKkSIdiu-19" value="n" style="text;strokeColor=none;fillColor=none;spacingLeft=4;spacingRight=4;overflow=hidden;rotatable=0;points=[[0,0.5],[1,0.5]];portConstraint=eastwest;fontSize=12;" vertex="1" parent="1">
          <mxGeometry x="490" y="290" width="40" height="30" as="geometry" />
        </mxCell>
        <mxCell id="QZwM-1VOMkJeXKkSIdiu-20" value="1" style="text;strokeColor=none;fillColor=none;spacingLeft=4;spacingRight=4;overflow=hidden;rotatable=0;points=[[0,0.5],[1,0.5]];portConstraint=eastwest;fontSize=12;" vertex="1" parent="1">
          <mxGeometry x="500" y="65" width="40" height="30" as="geometry" />
        </mxCell>
        <mxCell id="QZwM-1VOMkJeXKkSIdiu-21" value="n" style="text;strokeColor=none;fillColor=none;spacingLeft=4;spacingRight=4;overflow=hidden;rotatable=0;points=[[0,0.5],[1,0.5]];portConstraint=eastwest;fontSize=12;" vertex="1" parent="1">
          <mxGeometry x="290" y="65" width="40" height="30" as="geometry" />
        </mxCell>
        <mxCell id="QZwM-1VOMkJeXKkSIdiu-22" value="n" style="text;strokeColor=none;fillColor=none;spacingLeft=4;spacingRight=4;overflow=hidden;rotatable=0;points=[[0,0.5],[1,0.5]];portConstraint=eastwest;fontSize=12;" vertex="1" parent="1">
          <mxGeometry x="300" y="180" width="40" height="30" as="geometry" />
        </mxCell>
        <mxCell id="QZwM-1VOMkJeXKkSIdiu-23" value="1" style="text;strokeColor=none;fillColor=none;spacingLeft=4;spacingRight=4;overflow=hidden;rotatable=0;points=[[0,0.5],[1,0.5]];portConstraint=eastwest;fontSize=12;" vertex="1" parent="1">
          <mxGeometry x="300" y="300" width="40" height="30" as="geometry" />
        </mxCell>
        <mxCell id="QZwM-1VOMkJeXKkSIdiu-24" value="n" style="text;strokeColor=none;fillColor=none;spacingLeft=4;spacingRight=4;overflow=hidden;rotatable=0;points=[[0,0.5],[1,0.5]];portConstraint=eastwest;fontSize=12;" vertex="1" parent="1">
          <mxGeometry x="490" y="190" width="40" height="30" as="geometry" />
        </mxCell>
      </root>
    </mxGraphModel>
  </diagram>
  <diagram id="sDPOk5b8_JK3awrR9yvz" name="Page-2">
    <mxGraphModel dx="782" dy="1590" grid="1" gridSize="10" guides="1" tooltips="1" connect="1" arrows="1" fold="1" page="1" pageScale="1" pageWidth="827" pageHeight="1169" math="0" shadow="0">
      <root>
        <mxCell id="L16kr0j89hfK2dhV_okQ-0" />
        <mxCell id="L16kr0j89hfK2dhV_okQ-1" parent="L16kr0j89hfK2dhV_okQ-0" />
        <mxCell id="lyNQL76Zs0o1rcrJQnm6-0" value="Sinh Viên" style="whiteSpace=wrap;html=1;align=center;fillColor=#dae8fc;strokeColor=#6c8ebf;" vertex="1" parent="L16kr0j89hfK2dhV_okQ-1">
          <mxGeometry x="550" y="295" width="100" height="40" as="geometry" />
        </mxCell>
        <mxCell id="lyNQL76Zs0o1rcrJQnm6-1" value="Quyển Sách" style="whiteSpace=wrap;html=1;align=center;fillColor=#dae8fc;strokeColor=#6c8ebf;" vertex="1" parent="L16kr0j89hfK2dhV_okQ-1">
          <mxGeometry x="185" y="50" width="100" height="40" as="geometry" />
        </mxCell>
        <mxCell id="lyNQL76Zs0o1rcrJQnm6-2" value="Loại sách" style="whiteSpace=wrap;html=1;align=center;fillColor=#dae8fc;strokeColor=#6c8ebf;" vertex="1" parent="L16kr0j89hfK2dhV_okQ-1">
          <mxGeometry x="550" y="50" width="100" height="40" as="geometry" />
        </mxCell>
        <mxCell id="lyNQL76Zs0o1rcrJQnm6-4" value="Phiếu mượn sách" style="whiteSpace=wrap;html=1;align=center;fillColor=#dae8fc;strokeColor=#6c8ebf;" vertex="1" parent="L16kr0j89hfK2dhV_okQ-1">
          <mxGeometry x="190" y="295" width="100" height="40" as="geometry" />
        </mxCell>
        <mxCell id="lyNQL76Zs0o1rcrJQnm6-6" value="thuộc" style="shape=rhombus;perimeter=rhombusPerimeter;whiteSpace=wrap;html=1;align=center;fillColor=#ffe6cc;strokeColor=#d79b00;" vertex="1" parent="L16kr0j89hfK2dhV_okQ-1">
          <mxGeometry x="406" y="47.5" width="84" height="45" as="geometry" />
        </mxCell>
        <mxCell id="lyNQL76Zs0o1rcrJQnm6-7" value="chứa" style="shape=rhombus;perimeter=rhombusPerimeter;whiteSpace=wrap;html=1;align=center;fillColor=#ffe6cc;strokeColor=#d79b00;" vertex="1" parent="L16kr0j89hfK2dhV_okQ-1">
          <mxGeometry x="195" y="185" width="90" height="40" as="geometry" />
        </mxCell>
        <mxCell id="lyNQL76Zs0o1rcrJQnm6-8" value="" style="endArrow=none;html=1;rounded=0;entryX=1;entryY=0.5;entryDx=0;entryDy=0;startArrow=none;exitX=0;exitY=0.5;exitDx=0;exitDy=0;" edge="1" parent="L16kr0j89hfK2dhV_okQ-1" source="lyNQL76Zs0o1rcrJQnm6-9" target="lyNQL76Zs0o1rcrJQnm6-4">
          <mxGeometry relative="1" as="geometry">
            <mxPoint x="370" y="340" as="sourcePoint" />
            <mxPoint x="600" y="240" as="targetPoint" />
            <Array as="points" />
          </mxGeometry>
        </mxCell>
        <mxCell id="lyNQL76Zs0o1rcrJQnm6-9" value="có" style="shape=rhombus;perimeter=rhombusPerimeter;whiteSpace=wrap;html=1;align=center;fillColor=#ffe6cc;strokeColor=#d79b00;" vertex="1" parent="L16kr0j89hfK2dhV_okQ-1">
          <mxGeometry x="370" y="295" width="100" height="40" as="geometry" />
        </mxCell>
        <mxCell id="lyNQL76Zs0o1rcrJQnm6-10" value="" style="endArrow=none;html=1;rounded=0;exitX=0;exitY=0.5;exitDx=0;exitDy=0;entryX=1;entryY=0.5;entryDx=0;entryDy=0;" edge="1" parent="L16kr0j89hfK2dhV_okQ-1" source="lyNQL76Zs0o1rcrJQnm6-0" target="lyNQL76Zs0o1rcrJQnm6-9">
          <mxGeometry relative="1" as="geometry">
            <mxPoint x="290" y="320" as="sourcePoint" />
            <mxPoint x="520" y="320" as="targetPoint" />
            <Array as="points" />
          </mxGeometry>
        </mxCell>
        <mxCell id="lyNQL76Zs0o1rcrJQnm6-11" value="" style="endArrow=none;html=1;rounded=0;entryX=0.5;entryY=1;entryDx=0;entryDy=0;" edge="1" parent="L16kr0j89hfK2dhV_okQ-1" source="lyNQL76Zs0o1rcrJQnm6-4" target="lyNQL76Zs0o1rcrJQnm6-7">
          <mxGeometry relative="1" as="geometry">
            <mxPoint x="320" y="250" as="sourcePoint" />
            <mxPoint x="480" y="250" as="targetPoint" />
          </mxGeometry>
        </mxCell>
        <mxCell id="lyNQL76Zs0o1rcrJQnm6-12" value="" style="endArrow=none;html=1;rounded=0;entryX=0.5;entryY=1;entryDx=0;entryDy=0;exitX=0.5;exitY=0;exitDx=0;exitDy=0;" edge="1" parent="L16kr0j89hfK2dhV_okQ-1" source="lyNQL76Zs0o1rcrJQnm6-7" target="lyNQL76Zs0o1rcrJQnm6-1">
          <mxGeometry relative="1" as="geometry">
            <mxPoint x="320" y="250" as="sourcePoint" />
            <mxPoint x="258" y="150" as="targetPoint" />
          </mxGeometry>
        </mxCell>
        <mxCell id="lyNQL76Zs0o1rcrJQnm6-13" value="" style="endArrow=none;html=1;rounded=0;exitX=1;exitY=0.5;exitDx=0;exitDy=0;entryX=0;entryY=0.5;entryDx=0;entryDy=0;" edge="1" parent="L16kr0j89hfK2dhV_okQ-1" source="lyNQL76Zs0o1rcrJQnm6-1" target="lyNQL76Zs0o1rcrJQnm6-6">
          <mxGeometry relative="1" as="geometry">
            <mxPoint x="320" y="250" as="sourcePoint" />
            <mxPoint x="480" y="250" as="targetPoint" />
          </mxGeometry>
        </mxCell>
        <mxCell id="lyNQL76Zs0o1rcrJQnm6-14" value="" style="endArrow=none;html=1;rounded=0;exitX=0;exitY=0.5;exitDx=0;exitDy=0;" edge="1" parent="L16kr0j89hfK2dhV_okQ-1" source="lyNQL76Zs0o1rcrJQnm6-2" target="lyNQL76Zs0o1rcrJQnm6-6">
          <mxGeometry relative="1" as="geometry">
            <mxPoint x="300" y="100" as="sourcePoint" />
            <mxPoint x="376" y="97.5" as="targetPoint" />
          </mxGeometry>
        </mxCell>
        <mxCell id="lyNQL76Zs0o1rcrJQnm6-15" value="n" style="text;strokeColor=none;fillColor=none;spacingLeft=4;spacingRight=4;overflow=hidden;rotatable=0;points=[[0,0.5],[1,0.5]];portConstraint=eastwest;fontSize=12;" vertex="1" parent="L16kr0j89hfK2dhV_okQ-1">
          <mxGeometry x="300" y="290" width="40" height="30" as="geometry" />
        </mxCell>
        <mxCell id="lyNQL76Zs0o1rcrJQnm6-16" value="1" style="text;strokeColor=none;fillColor=none;spacingLeft=4;spacingRight=4;overflow=hidden;rotatable=0;points=[[0,0.5],[1,0.5]];portConstraint=eastwest;fontSize=12;" vertex="1" parent="L16kr0j89hfK2dhV_okQ-1">
          <mxGeometry x="520" y="65" width="40" height="30" as="geometry" />
        </mxCell>
        <mxCell id="lyNQL76Zs0o1rcrJQnm6-17" value="n" style="text;strokeColor=none;fillColor=none;spacingLeft=4;spacingRight=4;overflow=hidden;rotatable=0;points=[[0,0.5],[1,0.5]];portConstraint=eastwest;fontSize=12;" vertex="1" parent="L16kr0j89hfK2dhV_okQ-1">
          <mxGeometry x="290" y="65" width="40" height="30" as="geometry" />
        </mxCell>
        <mxCell id="lyNQL76Zs0o1rcrJQnm6-18" value="n" style="text;strokeColor=none;fillColor=none;spacingLeft=4;spacingRight=4;overflow=hidden;rotatable=0;points=[[0,0.5],[1,0.5]];portConstraint=eastwest;fontSize=12;" vertex="1" parent="L16kr0j89hfK2dhV_okQ-1">
          <mxGeometry x="250" y="120" width="40" height="30" as="geometry" />
        </mxCell>
        <mxCell id="lyNQL76Zs0o1rcrJQnm6-19" value="1" style="text;strokeColor=none;fillColor=none;spacingLeft=4;spacingRight=4;overflow=hidden;rotatable=0;points=[[0,0.5],[1,0.5]];portConstraint=eastwest;fontSize=12;" vertex="1" parent="L16kr0j89hfK2dhV_okQ-1">
          <mxGeometry x="520" y="290" width="40" height="30" as="geometry" />
        </mxCell>
        <mxCell id="lyNQL76Zs0o1rcrJQnm6-20" value="n" style="text;strokeColor=none;fillColor=none;spacingLeft=4;spacingRight=4;overflow=hidden;rotatable=0;points=[[0,0.5],[1,0.5]];portConstraint=eastwest;fontSize=12;" vertex="1" parent="L16kr0j89hfK2dhV_okQ-1">
          <mxGeometry x="245" y="265" width="40" height="30" as="geometry" />
        </mxCell>
        <mxCell id="lyNQL76Zs0o1rcrJQnm6-21" value="Mã loại sách" style="ellipse;whiteSpace=wrap;html=1;align=center;fontStyle=5;" vertex="1" parent="L16kr0j89hfK2dhV_okQ-1">
          <mxGeometry x="580" y="-20" width="100" height="40" as="geometry" />
        </mxCell>
        <mxCell id="lyNQL76Zs0o1rcrJQnm6-22" value="Tên loại sách" style="ellipse;whiteSpace=wrap;html=1;align=center;" vertex="1" parent="L16kr0j89hfK2dhV_okQ-1">
          <mxGeometry x="670" y="55" width="100" height="40" as="geometry" />
        </mxCell>
        <mxCell id="lyNQL76Zs0o1rcrJQnm6-23" value="Nhà xuất bản" style="ellipse;whiteSpace=wrap;html=1;align=center;" vertex="1" parent="L16kr0j89hfK2dhV_okQ-1">
          <mxGeometry x="210" y="-80" width="100" height="40" as="geometry" />
        </mxCell>
        <mxCell id="lyNQL76Zs0o1rcrJQnm6-24" value="Tiêu đề" style="ellipse;whiteSpace=wrap;html=1;align=center;" vertex="1" parent="L16kr0j89hfK2dhV_okQ-1">
          <mxGeometry x="280" y="-50" width="100" height="40" as="geometry" />
        </mxCell>
        <mxCell id="lyNQL76Zs0o1rcrJQnm6-25" value="Tác giả" style="ellipse;whiteSpace=wrap;html=1;align=center;" vertex="1" parent="L16kr0j89hfK2dhV_okQ-1">
          <mxGeometry x="20" width="100" height="40" as="geometry" />
        </mxCell>
        <mxCell id="lyNQL76Zs0o1rcrJQnm6-26" value="Số trang" style="ellipse;whiteSpace=wrap;html=1;align=center;" vertex="1" parent="L16kr0j89hfK2dhV_okQ-1">
          <mxGeometry x="10" y="55" width="100" height="40" as="geometry" />
        </mxCell>
        <mxCell id="lyNQL76Zs0o1rcrJQnm6-27" value="Mã sách" style="ellipse;whiteSpace=wrap;html=1;align=center;fontStyle=5;" vertex="1" parent="L16kr0j89hfK2dhV_okQ-1">
          <mxGeometry x="110" y="145" width="100" height="40" as="geometry" />
        </mxCell>
        <mxCell id="lyNQL76Zs0o1rcrJQnm6-28" value="Giá tiền" style="ellipse;whiteSpace=wrap;html=1;align=center;" vertex="1" parent="L16kr0j89hfK2dhV_okQ-1">
          <mxGeometry x="20" y="110" width="100" height="40" as="geometry" />
        </mxCell>
        <mxCell id="lyNQL76Zs0o1rcrJQnm6-29" value="Ngày nhập kho" style="ellipse;whiteSpace=wrap;html=1;align=center;" vertex="1" parent="L16kr0j89hfK2dhV_okQ-1">
          <mxGeometry x="70" y="-40" width="100" height="40" as="geometry" />
        </mxCell>
        <mxCell id="lyNQL76Zs0o1rcrJQnm6-30" value="Vị trí đặt sách" style="ellipse;whiteSpace=wrap;html=1;align=center;" vertex="1" parent="L16kr0j89hfK2dhV_okQ-1">
          <mxGeometry x="320" width="100" height="40" as="geometry" />
        </mxCell>
        <mxCell id="lyNQL76Zs0o1rcrJQnm6-32" value="Mã sinh viên" style="ellipse;whiteSpace=wrap;html=1;align=center;fontStyle=5;" vertex="1" parent="L16kr0j89hfK2dhV_okQ-1">
          <mxGeometry x="680" y="280" width="100" height="40" as="geometry" />
        </mxCell>
        <mxCell id="lyNQL76Zs0o1rcrJQnm6-34" value="Mã số phiếu" style="ellipse;whiteSpace=wrap;html=1;align=center;fontStyle=5" vertex="1" parent="L16kr0j89hfK2dhV_okQ-1">
          <mxGeometry x="60" y="295" width="100" height="40" as="geometry" />
        </mxCell>
        <mxCell id="lyNQL76Zs0o1rcrJQnm6-35" value="Email" style="ellipse;whiteSpace=wrap;html=1;align=center;" vertex="1" parent="L16kr0j89hfK2dhV_okQ-1">
          <mxGeometry x="490" y="370" width="100" height="40" as="geometry" />
        </mxCell>
        <mxCell id="lyNQL76Zs0o1rcrJQnm6-36" value="Tên sinh viên" style="ellipse;whiteSpace=wrap;html=1;align=center;" vertex="1" parent="L16kr0j89hfK2dhV_okQ-1">
          <mxGeometry x="680" y="335" width="100" height="40" as="geometry" />
        </mxCell>
        <mxCell id="lyNQL76Zs0o1rcrJQnm6-37" value="Ngày hết hạn&lt;br&gt;thẻ" style="ellipse;whiteSpace=wrap;html=1;align=center;" vertex="1" parent="L16kr0j89hfK2dhV_okQ-1">
          <mxGeometry x="602" y="370" width="100" height="40" as="geometry" />
        </mxCell>
        <mxCell id="lyNQL76Zs0o1rcrJQnm6-38" value="Chuyên ngành học" style="ellipse;whiteSpace=wrap;html=1;align=center;" vertex="1" parent="L16kr0j89hfK2dhV_okQ-1">
          <mxGeometry x="520" y="225" width="100" height="40" as="geometry" />
        </mxCell>
        <mxCell id="lyNQL76Zs0o1rcrJQnm6-39" value="Số điện thoại" style="ellipse;whiteSpace=wrap;html=1;align=center;" vertex="1" parent="L16kr0j89hfK2dhV_okQ-1">
          <mxGeometry x="640" y="225" width="100" height="40" as="geometry" />
        </mxCell>
        <mxCell id="lyNQL76Zs0o1rcrJQnm6-40" value="Ngày mượn" style="ellipse;whiteSpace=wrap;html=1;align=center;" vertex="1" parent="L16kr0j89hfK2dhV_okQ-1">
          <mxGeometry x="80" y="370" width="100" height="40" as="geometry" />
        </mxCell>
        <mxCell id="lyNQL76Zs0o1rcrJQnm6-41" value="Ngày trả sách" style="ellipse;whiteSpace=wrap;html=1;align=center;" vertex="1" parent="L16kr0j89hfK2dhV_okQ-1">
          <mxGeometry x="200" y="380" width="100" height="40" as="geometry" />
        </mxCell>
        <mxCell id="lyNQL76Zs0o1rcrJQnm6-43" value="" style="endArrow=none;html=1;rounded=0;exitX=0.25;exitY=1;exitDx=0;exitDy=0;entryX=0.5;entryY=0;entryDx=0;entryDy=0;" edge="1" parent="L16kr0j89hfK2dhV_okQ-1" source="lyNQL76Zs0o1rcrJQnm6-1" target="lyNQL76Zs0o1rcrJQnm6-27">
          <mxGeometry relative="1" as="geometry">
            <mxPoint x="340" y="210" as="sourcePoint" />
            <mxPoint x="500" y="210" as="targetPoint" />
          </mxGeometry>
        </mxCell>
        <mxCell id="lyNQL76Zs0o1rcrJQnm6-44" value="" style="endArrow=none;html=1;rounded=0;exitX=0;exitY=1;exitDx=0;exitDy=0;entryX=1;entryY=0;entryDx=0;entryDy=0;" edge="1" parent="L16kr0j89hfK2dhV_okQ-1" source="lyNQL76Zs0o1rcrJQnm6-1" target="lyNQL76Zs0o1rcrJQnm6-28">
          <mxGeometry relative="1" as="geometry">
            <mxPoint x="220" y="100" as="sourcePoint" />
            <mxPoint x="170" y="155" as="targetPoint" />
          </mxGeometry>
        </mxCell>
        <mxCell id="lyNQL76Zs0o1rcrJQnm6-45" value="" style="endArrow=none;html=1;rounded=0;exitX=0;exitY=0.5;exitDx=0;exitDy=0;entryX=1;entryY=0.5;entryDx=0;entryDy=0;" edge="1" parent="L16kr0j89hfK2dhV_okQ-1" source="lyNQL76Zs0o1rcrJQnm6-1" target="lyNQL76Zs0o1rcrJQnm6-26">
          <mxGeometry relative="1" as="geometry">
            <mxPoint x="230" y="110" as="sourcePoint" />
            <mxPoint x="180" y="165" as="targetPoint" />
          </mxGeometry>
        </mxCell>
        <mxCell id="lyNQL76Zs0o1rcrJQnm6-46" value="" style="endArrow=none;html=1;rounded=0;exitX=0;exitY=0;exitDx=0;exitDy=0;entryX=1;entryY=0.5;entryDx=0;entryDy=0;" edge="1" parent="L16kr0j89hfK2dhV_okQ-1" source="lyNQL76Zs0o1rcrJQnm6-1" target="lyNQL76Zs0o1rcrJQnm6-25">
          <mxGeometry relative="1" as="geometry">
            <mxPoint x="195" y="80" as="sourcePoint" />
            <mxPoint x="120" y="85" as="targetPoint" />
          </mxGeometry>
        </mxCell>
        <mxCell id="lyNQL76Zs0o1rcrJQnm6-47" value="" style="endArrow=none;html=1;rounded=0;exitX=0.25;exitY=0;exitDx=0;exitDy=0;entryX=1;entryY=1;entryDx=0;entryDy=0;" edge="1" parent="L16kr0j89hfK2dhV_okQ-1" source="lyNQL76Zs0o1rcrJQnm6-1" target="lyNQL76Zs0o1rcrJQnm6-29">
          <mxGeometry relative="1" as="geometry">
            <mxPoint x="205" y="90" as="sourcePoint" />
            <mxPoint x="130" y="95" as="targetPoint" />
          </mxGeometry>
        </mxCell>
        <mxCell id="lyNQL76Zs0o1rcrJQnm6-48" value="" style="endArrow=none;html=1;rounded=0;exitX=0.5;exitY=0;exitDx=0;exitDy=0;entryX=0.5;entryY=1;entryDx=0;entryDy=0;" edge="1" parent="L16kr0j89hfK2dhV_okQ-1" source="lyNQL76Zs0o1rcrJQnm6-1" target="lyNQL76Zs0o1rcrJQnm6-23">
          <mxGeometry relative="1" as="geometry">
            <mxPoint x="215" y="100" as="sourcePoint" />
            <mxPoint x="140" y="105" as="targetPoint" />
          </mxGeometry>
        </mxCell>
        <mxCell id="lyNQL76Zs0o1rcrJQnm6-49" value="" style="endArrow=none;html=1;rounded=0;exitX=0.75;exitY=0;exitDx=0;exitDy=0;entryX=0.22;entryY=1.033;entryDx=0;entryDy=0;entryPerimeter=0;" edge="1" parent="L16kr0j89hfK2dhV_okQ-1" source="lyNQL76Zs0o1rcrJQnm6-1" target="lyNQL76Zs0o1rcrJQnm6-24">
          <mxGeometry relative="1" as="geometry">
            <mxPoint x="225" y="110" as="sourcePoint" />
            <mxPoint x="150" y="115" as="targetPoint" />
          </mxGeometry>
        </mxCell>
        <mxCell id="lyNQL76Zs0o1rcrJQnm6-50" value="" style="endArrow=none;html=1;rounded=0;exitX=1;exitY=0;exitDx=0;exitDy=0;entryX=0;entryY=0.5;entryDx=0;entryDy=0;" edge="1" parent="L16kr0j89hfK2dhV_okQ-1" source="lyNQL76Zs0o1rcrJQnm6-1" target="lyNQL76Zs0o1rcrJQnm6-30">
          <mxGeometry relative="1" as="geometry">
            <mxPoint x="235" y="120" as="sourcePoint" />
            <mxPoint x="160" y="125" as="targetPoint" />
          </mxGeometry>
        </mxCell>
        <mxCell id="lyNQL76Zs0o1rcrJQnm6-51" value="Ghi chú" style="ellipse;whiteSpace=wrap;html=1;align=center;" vertex="1" parent="L16kr0j89hfK2dhV_okQ-1">
          <mxGeometry x="314" y="180" width="100" height="40" as="geometry" />
        </mxCell>
        <mxCell id="lyNQL76Zs0o1rcrJQnm6-52" value="" style="endArrow=none;html=1;rounded=0;exitX=1;exitY=0.5;exitDx=0;exitDy=0;entryX=0;entryY=0.5;entryDx=0;entryDy=0;" edge="1" parent="L16kr0j89hfK2dhV_okQ-1" source="lyNQL76Zs0o1rcrJQnm6-7" target="lyNQL76Zs0o1rcrJQnm6-51">
          <mxGeometry relative="1" as="geometry">
            <mxPoint x="340" y="310" as="sourcePoint" />
            <mxPoint x="500" y="310" as="targetPoint" />
          </mxGeometry>
        </mxCell>
        <mxCell id="lyNQL76Zs0o1rcrJQnm6-53" value="" style="endArrow=none;html=1;rounded=0;exitX=0.5;exitY=1;exitDx=0;exitDy=0;entryX=0.5;entryY=0;entryDx=0;entryDy=0;" edge="1" parent="L16kr0j89hfK2dhV_okQ-1" source="lyNQL76Zs0o1rcrJQnm6-21" target="lyNQL76Zs0o1rcrJQnm6-2">
          <mxGeometry relative="1" as="geometry">
            <mxPoint x="340" y="310" as="sourcePoint" />
            <mxPoint x="500" y="310" as="targetPoint" />
          </mxGeometry>
        </mxCell>
        <mxCell id="lyNQL76Zs0o1rcrJQnm6-54" value="" style="endArrow=none;html=1;rounded=0;exitX=0;exitY=0.5;exitDx=0;exitDy=0;entryX=1;entryY=0.5;entryDx=0;entryDy=0;" edge="1" parent="L16kr0j89hfK2dhV_okQ-1" source="lyNQL76Zs0o1rcrJQnm6-22" target="lyNQL76Zs0o1rcrJQnm6-2">
          <mxGeometry relative="1" as="geometry">
            <mxPoint x="640" y="30" as="sourcePoint" />
            <mxPoint x="610" y="60" as="targetPoint" />
          </mxGeometry>
        </mxCell>
        <mxCell id="lyNQL76Zs0o1rcrJQnm6-55" value="" style="endArrow=none;html=1;rounded=0;exitX=0.5;exitY=1;exitDx=0;exitDy=0;entryX=0.5;entryY=0;entryDx=0;entryDy=0;" edge="1" parent="L16kr0j89hfK2dhV_okQ-1" source="lyNQL76Zs0o1rcrJQnm6-38" target="lyNQL76Zs0o1rcrJQnm6-0">
          <mxGeometry relative="1" as="geometry">
            <mxPoint x="680" y="85" as="sourcePoint" />
            <mxPoint x="660" y="80" as="targetPoint" />
          </mxGeometry>
        </mxCell>
        <mxCell id="lyNQL76Zs0o1rcrJQnm6-56" value="" style="endArrow=none;html=1;rounded=0;exitX=0.75;exitY=0;exitDx=0;exitDy=0;entryX=0;entryY=1;entryDx=0;entryDy=0;" edge="1" parent="L16kr0j89hfK2dhV_okQ-1" source="lyNQL76Zs0o1rcrJQnm6-0" target="lyNQL76Zs0o1rcrJQnm6-39">
          <mxGeometry relative="1" as="geometry">
            <mxPoint x="580" y="275" as="sourcePoint" />
            <mxPoint x="610" y="305" as="targetPoint" />
          </mxGeometry>
        </mxCell>
        <mxCell id="lyNQL76Zs0o1rcrJQnm6-57" value="" style="endArrow=none;html=1;rounded=0;exitX=1;exitY=0.5;exitDx=0;exitDy=0;entryX=0;entryY=0.5;entryDx=0;entryDy=0;" edge="1" parent="L16kr0j89hfK2dhV_okQ-1" source="lyNQL76Zs0o1rcrJQnm6-0" target="lyNQL76Zs0o1rcrJQnm6-32">
          <mxGeometry relative="1" as="geometry">
            <mxPoint x="590" y="285" as="sourcePoint" />
            <mxPoint x="620" y="315" as="targetPoint" />
          </mxGeometry>
        </mxCell>
        <mxCell id="lyNQL76Zs0o1rcrJQnm6-58" value="" style="endArrow=none;html=1;rounded=0;exitX=1;exitY=1;exitDx=0;exitDy=0;entryX=0;entryY=0.5;entryDx=0;entryDy=0;" edge="1" parent="L16kr0j89hfK2dhV_okQ-1" source="lyNQL76Zs0o1rcrJQnm6-0" target="lyNQL76Zs0o1rcrJQnm6-36">
          <mxGeometry relative="1" as="geometry">
            <mxPoint x="600" y="295" as="sourcePoint" />
            <mxPoint x="630" y="325" as="targetPoint" />
          </mxGeometry>
        </mxCell>
        <mxCell id="lyNQL76Zs0o1rcrJQnm6-59" value="" style="endArrow=none;html=1;rounded=0;exitX=0.25;exitY=1;exitDx=0;exitDy=0;entryX=0.5;entryY=0;entryDx=0;entryDy=0;" edge="1" parent="L16kr0j89hfK2dhV_okQ-1" source="lyNQL76Zs0o1rcrJQnm6-0" target="lyNQL76Zs0o1rcrJQnm6-35">
          <mxGeometry relative="1" as="geometry">
            <mxPoint x="610" y="305" as="sourcePoint" />
            <mxPoint x="560" y="370" as="targetPoint" />
          </mxGeometry>
        </mxCell>
        <mxCell id="lyNQL76Zs0o1rcrJQnm6-60" value="" style="endArrow=none;html=1;rounded=0;exitX=0.75;exitY=1;exitDx=0;exitDy=0;entryX=0.5;entryY=0;entryDx=0;entryDy=0;" edge="1" parent="L16kr0j89hfK2dhV_okQ-1" source="lyNQL76Zs0o1rcrJQnm6-0" target="lyNQL76Zs0o1rcrJQnm6-37">
          <mxGeometry relative="1" as="geometry">
            <mxPoint x="620" y="315" as="sourcePoint" />
            <mxPoint x="650" y="345" as="targetPoint" />
          </mxGeometry>
        </mxCell>
        <mxCell id="lyNQL76Zs0o1rcrJQnm6-61" value="" style="endArrow=none;html=1;rounded=0;exitX=0.5;exitY=1;exitDx=0;exitDy=0;entryX=0.5;entryY=0;entryDx=0;entryDy=0;" edge="1" parent="L16kr0j89hfK2dhV_okQ-1" source="lyNQL76Zs0o1rcrJQnm6-4" target="lyNQL76Zs0o1rcrJQnm6-41">
          <mxGeometry relative="1" as="geometry">
            <mxPoint x="340" y="410" as="sourcePoint" />
            <mxPoint x="500" y="410" as="targetPoint" />
          </mxGeometry>
        </mxCell>
        <mxCell id="lyNQL76Zs0o1rcrJQnm6-62" value="" style="endArrow=none;html=1;rounded=0;exitX=0.25;exitY=1;exitDx=0;exitDy=0;entryX=1;entryY=0;entryDx=0;entryDy=0;" edge="1" parent="L16kr0j89hfK2dhV_okQ-1" source="lyNQL76Zs0o1rcrJQnm6-4" target="lyNQL76Zs0o1rcrJQnm6-40">
          <mxGeometry relative="1" as="geometry">
            <mxPoint x="250" y="345" as="sourcePoint" />
            <mxPoint x="260" y="390" as="targetPoint" />
          </mxGeometry>
        </mxCell>
        <mxCell id="lyNQL76Zs0o1rcrJQnm6-63" value="" style="endArrow=none;html=1;rounded=0;exitX=0;exitY=0.5;exitDx=0;exitDy=0;entryX=1;entryY=0.5;entryDx=0;entryDy=0;" edge="1" parent="L16kr0j89hfK2dhV_okQ-1" source="lyNQL76Zs0o1rcrJQnm6-4" target="lyNQL76Zs0o1rcrJQnm6-34">
          <mxGeometry relative="1" as="geometry">
            <mxPoint x="225" y="345" as="sourcePoint" />
            <mxPoint x="175.35533905932743" y="385.85786437626916" as="targetPoint" />
          </mxGeometry>
        </mxCell>
        <mxCell id="eFrdOmBxx4_5EZ5e98GB-0" value="Số lượng bản sao" style="ellipse;whiteSpace=wrap;html=1;align=center;" vertex="1" parent="L16kr0j89hfK2dhV_okQ-1">
          <mxGeometry x="100" y="-80" width="100" height="40" as="geometry" />
        </mxCell>
        <mxCell id="eFrdOmBxx4_5EZ5e98GB-2" value="" style="endArrow=none;html=1;rounded=0;exitX=0.5;exitY=0;exitDx=0;exitDy=0;entryX=1;entryY=1;entryDx=0;entryDy=0;" edge="1" parent="L16kr0j89hfK2dhV_okQ-1" source="lyNQL76Zs0o1rcrJQnm6-1" target="eFrdOmBxx4_5EZ5e98GB-0">
          <mxGeometry relative="1" as="geometry">
            <mxPoint x="340" y="110" as="sourcePoint" />
            <mxPoint x="500" y="110" as="targetPoint" />
          </mxGeometry>
        </mxCell>
      </root>
    </mxGraphModel>
  </diagram>
  <diagram id="--FvItpzXVX-1t9dfvUd" name="Page-3">
    <mxGraphModel dx="782" dy="421" grid="1" gridSize="10" guides="1" tooltips="1" connect="1" arrows="1" fold="1" page="1" pageScale="1" pageWidth="827" pageHeight="1169" math="0" shadow="0">
      <root>
        <mxCell id="xq6mZ9nFL28TJ4dmC3tQ-0" />
        <mxCell id="xq6mZ9nFL28TJ4dmC3tQ-1" parent="xq6mZ9nFL28TJ4dmC3tQ-0" />
        <mxCell id="QENsBfWK47Msr97pYz6I-0" value="SinhVien" style="shape=table;startSize=30;container=1;collapsible=1;childLayout=tableLayout;fixedRows=1;rowLines=0;fontStyle=1;align=center;resizeLast=1;" vertex="1" parent="xq6mZ9nFL28TJ4dmC3tQ-1">
          <mxGeometry x="100" y="90" width="180" height="220" as="geometry" />
        </mxCell>
        <mxCell id="QENsBfWK47Msr97pYz6I-1" value="" style="shape=partialRectangle;collapsible=0;dropTarget=0;pointerEvents=0;fillColor=none;top=0;left=0;bottom=1;right=0;points=[[0,0.5],[1,0.5]];portConstraint=eastwest;" vertex="1" parent="QENsBfWK47Msr97pYz6I-0">
          <mxGeometry y="30" width="180" height="30" as="geometry" />
        </mxCell>
        <mxCell id="QENsBfWK47Msr97pYz6I-2" value="PK" style="shape=partialRectangle;connectable=0;fillColor=none;top=0;left=0;bottom=0;right=0;fontStyle=1;overflow=hidden;" vertex="1" parent="QENsBfWK47Msr97pYz6I-1">
          <mxGeometry width="30" height="30" as="geometry" />
        </mxCell>
        <mxCell id="QENsBfWK47Msr97pYz6I-3" value="maSinhVien" style="shape=partialRectangle;connectable=0;fillColor=none;top=0;left=0;bottom=0;right=0;align=left;spacingLeft=6;fontStyle=5;overflow=hidden;" vertex="1" parent="QENsBfWK47Msr97pYz6I-1">
          <mxGeometry x="30" width="150" height="30" as="geometry" />
        </mxCell>
        <mxCell id="QENsBfWK47Msr97pYz6I-4" value="" style="shape=partialRectangle;collapsible=0;dropTarget=0;pointerEvents=0;fillColor=none;top=0;left=0;bottom=0;right=0;points=[[0,0.5],[1,0.5]];portConstraint=eastwest;" vertex="1" parent="QENsBfWK47Msr97pYz6I-0">
          <mxGeometry y="60" width="180" height="30" as="geometry" />
        </mxCell>
        <mxCell id="QENsBfWK47Msr97pYz6I-5" value="" style="shape=partialRectangle;connectable=0;fillColor=none;top=0;left=0;bottom=0;right=0;editable=1;overflow=hidden;" vertex="1" parent="QENsBfWK47Msr97pYz6I-4">
          <mxGeometry width="30" height="30" as="geometry" />
        </mxCell>
        <mxCell id="QENsBfWK47Msr97pYz6I-6" value="tenSinhVien" style="shape=partialRectangle;connectable=0;fillColor=none;top=0;left=0;bottom=0;right=0;align=left;spacingLeft=6;overflow=hidden;" vertex="1" parent="QENsBfWK47Msr97pYz6I-4">
          <mxGeometry x="30" width="150" height="30" as="geometry" />
        </mxCell>
        <mxCell id="QENsBfWK47Msr97pYz6I-7" value="" style="shape=partialRectangle;collapsible=0;dropTarget=0;pointerEvents=0;fillColor=none;top=0;left=0;bottom=0;right=0;points=[[0,0.5],[1,0.5]];portConstraint=eastwest;" vertex="1" parent="QENsBfWK47Msr97pYz6I-0">
          <mxGeometry y="90" width="180" height="30" as="geometry" />
        </mxCell>
        <mxCell id="QENsBfWK47Msr97pYz6I-8" value="" style="shape=partialRectangle;connectable=0;fillColor=none;top=0;left=0;bottom=0;right=0;editable=1;overflow=hidden;" vertex="1" parent="QENsBfWK47Msr97pYz6I-7">
          <mxGeometry width="30" height="30" as="geometry" />
        </mxCell>
        <mxCell id="QENsBfWK47Msr97pYz6I-9" value="soDienThoai" style="shape=partialRectangle;connectable=0;fillColor=none;top=0;left=0;bottom=0;right=0;align=left;spacingLeft=6;overflow=hidden;" vertex="1" parent="QENsBfWK47Msr97pYz6I-7">
          <mxGeometry x="30" width="150" height="30" as="geometry" />
        </mxCell>
        <mxCell id="QENsBfWK47Msr97pYz6I-10" value="" style="shape=partialRectangle;collapsible=0;dropTarget=0;pointerEvents=0;fillColor=none;top=0;left=0;bottom=0;right=0;points=[[0,0.5],[1,0.5]];portConstraint=eastwest;" vertex="1" parent="QENsBfWK47Msr97pYz6I-0">
          <mxGeometry y="120" width="180" height="30" as="geometry" />
        </mxCell>
        <mxCell id="QENsBfWK47Msr97pYz6I-11" value="" style="shape=partialRectangle;connectable=0;fillColor=none;top=0;left=0;bottom=0;right=0;editable=1;overflow=hidden;" vertex="1" parent="QENsBfWK47Msr97pYz6I-10">
          <mxGeometry width="30" height="30" as="geometry" />
        </mxCell>
        <mxCell id="QENsBfWK47Msr97pYz6I-12" value="chuyenNganh" style="shape=partialRectangle;connectable=0;fillColor=none;top=0;left=0;bottom=0;right=0;align=left;spacingLeft=6;overflow=hidden;" vertex="1" parent="QENsBfWK47Msr97pYz6I-10">
          <mxGeometry x="30" width="150" height="30" as="geometry" />
        </mxCell>
        <mxCell id="77bpvI1iw2Zbxle9z2Dy-0" value="" style="shape=partialRectangle;collapsible=0;dropTarget=0;pointerEvents=0;fillColor=none;top=0;left=0;bottom=0;right=0;points=[[0,0.5],[1,0.5]];portConstraint=eastwest;" vertex="1" parent="QENsBfWK47Msr97pYz6I-0">
          <mxGeometry y="150" width="180" height="30" as="geometry" />
        </mxCell>
        <mxCell id="77bpvI1iw2Zbxle9z2Dy-1" value="" style="shape=partialRectangle;connectable=0;fillColor=none;top=0;left=0;bottom=0;right=0;editable=1;overflow=hidden;" vertex="1" parent="77bpvI1iw2Zbxle9z2Dy-0">
          <mxGeometry width="30" height="30" as="geometry" />
        </mxCell>
        <mxCell id="77bpvI1iw2Zbxle9z2Dy-2" value="ngayHetHanThe" style="shape=partialRectangle;connectable=0;fillColor=none;top=0;left=0;bottom=0;right=0;align=left;spacingLeft=6;overflow=hidden;" vertex="1" parent="77bpvI1iw2Zbxle9z2Dy-0">
          <mxGeometry x="30" width="150" height="30" as="geometry" />
        </mxCell>
        <mxCell id="77bpvI1iw2Zbxle9z2Dy-3" value="" style="shape=partialRectangle;collapsible=0;dropTarget=0;pointerEvents=0;fillColor=none;top=0;left=0;bottom=0;right=0;points=[[0,0.5],[1,0.5]];portConstraint=eastwest;" vertex="1" parent="QENsBfWK47Msr97pYz6I-0">
          <mxGeometry y="180" width="180" height="30" as="geometry" />
        </mxCell>
        <mxCell id="77bpvI1iw2Zbxle9z2Dy-4" value="" style="shape=partialRectangle;connectable=0;fillColor=none;top=0;left=0;bottom=0;right=0;editable=1;overflow=hidden;" vertex="1" parent="77bpvI1iw2Zbxle9z2Dy-3">
          <mxGeometry width="30" height="30" as="geometry" />
        </mxCell>
        <mxCell id="77bpvI1iw2Zbxle9z2Dy-5" value="Email" style="shape=partialRectangle;connectable=0;fillColor=none;top=0;left=0;bottom=0;right=0;align=left;spacingLeft=6;overflow=hidden;" vertex="1" parent="77bpvI1iw2Zbxle9z2Dy-3">
          <mxGeometry x="30" width="150" height="30" as="geometry" />
        </mxCell>
        <mxCell id="QENsBfWK47Msr97pYz6I-13" value="Sach" style="shape=table;startSize=30;container=1;collapsible=1;childLayout=tableLayout;fixedRows=1;rowLines=0;fontStyle=1;align=center;resizeLast=1;" vertex="1" parent="xq6mZ9nFL28TJ4dmC3tQ-1">
          <mxGeometry x="560" y="90" width="180" height="340" as="geometry" />
        </mxCell>
        <mxCell id="QENsBfWK47Msr97pYz6I-14" value="" style="shape=partialRectangle;collapsible=0;dropTarget=0;pointerEvents=0;fillColor=none;top=0;left=0;bottom=1;right=0;points=[[0,0.5],[1,0.5]];portConstraint=eastwest;" vertex="1" parent="QENsBfWK47Msr97pYz6I-13">
          <mxGeometry y="30" width="180" height="30" as="geometry" />
        </mxCell>
        <mxCell id="QENsBfWK47Msr97pYz6I-15" value="PK" style="shape=partialRectangle;connectable=0;fillColor=none;top=0;left=0;bottom=0;right=0;fontStyle=1;overflow=hidden;" vertex="1" parent="QENsBfWK47Msr97pYz6I-14">
          <mxGeometry width="30" height="30" as="geometry" />
        </mxCell>
        <mxCell id="QENsBfWK47Msr97pYz6I-16" value="maSach" style="shape=partialRectangle;connectable=0;fillColor=none;top=0;left=0;bottom=0;right=0;align=left;spacingLeft=6;fontStyle=5;overflow=hidden;" vertex="1" parent="QENsBfWK47Msr97pYz6I-14">
          <mxGeometry x="30" width="150" height="30" as="geometry" />
        </mxCell>
        <mxCell id="QENsBfWK47Msr97pYz6I-17" value="" style="shape=partialRectangle;collapsible=0;dropTarget=0;pointerEvents=0;fillColor=none;top=0;left=0;bottom=0;right=0;points=[[0,0.5],[1,0.5]];portConstraint=eastwest;" vertex="1" parent="QENsBfWK47Msr97pYz6I-13">
          <mxGeometry y="60" width="180" height="30" as="geometry" />
        </mxCell>
        <mxCell id="QENsBfWK47Msr97pYz6I-18" value="" style="shape=partialRectangle;connectable=0;fillColor=none;top=0;left=0;bottom=0;right=0;editable=1;overflow=hidden;" vertex="1" parent="QENsBfWK47Msr97pYz6I-17">
          <mxGeometry width="30" height="30" as="geometry" />
        </mxCell>
        <mxCell id="QENsBfWK47Msr97pYz6I-19" value="tieuDe" style="shape=partialRectangle;connectable=0;fillColor=none;top=0;left=0;bottom=0;right=0;align=left;spacingLeft=6;overflow=hidden;" vertex="1" parent="QENsBfWK47Msr97pYz6I-17">
          <mxGeometry x="30" width="150" height="30" as="geometry" />
        </mxCell>
        <mxCell id="QENsBfWK47Msr97pYz6I-20" value="" style="shape=partialRectangle;collapsible=0;dropTarget=0;pointerEvents=0;fillColor=none;top=0;left=0;bottom=0;right=0;points=[[0,0.5],[1,0.5]];portConstraint=eastwest;" vertex="1" parent="QENsBfWK47Msr97pYz6I-13">
          <mxGeometry y="90" width="180" height="30" as="geometry" />
        </mxCell>
        <mxCell id="QENsBfWK47Msr97pYz6I-21" value="" style="shape=partialRectangle;connectable=0;fillColor=none;top=0;left=0;bottom=0;right=0;editable=1;overflow=hidden;" vertex="1" parent="QENsBfWK47Msr97pYz6I-20">
          <mxGeometry width="30" height="30" as="geometry" />
        </mxCell>
        <mxCell id="QENsBfWK47Msr97pYz6I-22" value="nhaXuatBan" style="shape=partialRectangle;connectable=0;fillColor=none;top=0;left=0;bottom=0;right=0;align=left;spacingLeft=6;overflow=hidden;" vertex="1" parent="QENsBfWK47Msr97pYz6I-20">
          <mxGeometry x="30" width="150" height="30" as="geometry" />
        </mxCell>
        <mxCell id="QENsBfWK47Msr97pYz6I-23" value="" style="shape=partialRectangle;collapsible=0;dropTarget=0;pointerEvents=0;fillColor=none;top=0;left=0;bottom=0;right=0;points=[[0,0.5],[1,0.5]];portConstraint=eastwest;" vertex="1" parent="QENsBfWK47Msr97pYz6I-13">
          <mxGeometry y="120" width="180" height="30" as="geometry" />
        </mxCell>
        <mxCell id="QENsBfWK47Msr97pYz6I-24" value="" style="shape=partialRectangle;connectable=0;fillColor=none;top=0;left=0;bottom=0;right=0;editable=1;overflow=hidden;" vertex="1" parent="QENsBfWK47Msr97pYz6I-23">
          <mxGeometry width="30" height="30" as="geometry" />
        </mxCell>
        <mxCell id="QENsBfWK47Msr97pYz6I-25" value="tacGia" style="shape=partialRectangle;connectable=0;fillColor=none;top=0;left=0;bottom=0;right=0;align=left;spacingLeft=6;overflow=hidden;" vertex="1" parent="QENsBfWK47Msr97pYz6I-23">
          <mxGeometry x="30" width="150" height="30" as="geometry" />
        </mxCell>
        <mxCell id="p8rpuLsUjRu-5u2ALI-v-1" value="" style="shape=partialRectangle;collapsible=0;dropTarget=0;pointerEvents=0;fillColor=none;top=0;left=0;bottom=0;right=0;points=[[0,0.5],[1,0.5]];portConstraint=eastwest;" vertex="1" parent="QENsBfWK47Msr97pYz6I-13">
          <mxGeometry y="150" width="180" height="30" as="geometry" />
        </mxCell>
        <mxCell id="p8rpuLsUjRu-5u2ALI-v-2" value="" style="shape=partialRectangle;connectable=0;fillColor=none;top=0;left=0;bottom=0;right=0;editable=1;overflow=hidden;" vertex="1" parent="p8rpuLsUjRu-5u2ALI-v-1">
          <mxGeometry width="30" height="30" as="geometry" />
        </mxCell>
        <mxCell id="p8rpuLsUjRu-5u2ALI-v-3" value="soTrang" style="shape=partialRectangle;connectable=0;fillColor=none;top=0;left=0;bottom=0;right=0;align=left;spacingLeft=6;overflow=hidden;" vertex="1" parent="p8rpuLsUjRu-5u2ALI-v-1">
          <mxGeometry x="30" width="150" height="30" as="geometry" />
        </mxCell>
        <mxCell id="p8rpuLsUjRu-5u2ALI-v-4" value="" style="shape=partialRectangle;collapsible=0;dropTarget=0;pointerEvents=0;fillColor=none;top=0;left=0;bottom=0;right=0;points=[[0,0.5],[1,0.5]];portConstraint=eastwest;" vertex="1" parent="QENsBfWK47Msr97pYz6I-13">
          <mxGeometry y="180" width="180" height="30" as="geometry" />
        </mxCell>
        <mxCell id="p8rpuLsUjRu-5u2ALI-v-5" value="" style="shape=partialRectangle;connectable=0;fillColor=none;top=0;left=0;bottom=0;right=0;editable=1;overflow=hidden;" vertex="1" parent="p8rpuLsUjRu-5u2ALI-v-4">
          <mxGeometry width="30" height="30" as="geometry" />
        </mxCell>
        <mxCell id="p8rpuLsUjRu-5u2ALI-v-6" value="soLuongBS" style="shape=partialRectangle;connectable=0;fillColor=none;top=0;left=0;bottom=0;right=0;align=left;spacingLeft=6;overflow=hidden;" vertex="1" parent="p8rpuLsUjRu-5u2ALI-v-4">
          <mxGeometry x="30" width="150" height="30" as="geometry" />
        </mxCell>
        <mxCell id="p8rpuLsUjRu-5u2ALI-v-7" value="" style="shape=partialRectangle;collapsible=0;dropTarget=0;pointerEvents=0;fillColor=none;top=0;left=0;bottom=0;right=0;points=[[0,0.5],[1,0.5]];portConstraint=eastwest;" vertex="1" parent="QENsBfWK47Msr97pYz6I-13">
          <mxGeometry y="210" width="180" height="30" as="geometry" />
        </mxCell>
        <mxCell id="p8rpuLsUjRu-5u2ALI-v-8" value="" style="shape=partialRectangle;connectable=0;fillColor=none;top=0;left=0;bottom=0;right=0;editable=1;overflow=hidden;" vertex="1" parent="p8rpuLsUjRu-5u2ALI-v-7">
          <mxGeometry width="30" height="30" as="geometry" />
        </mxCell>
        <mxCell id="p8rpuLsUjRu-5u2ALI-v-9" value="giaTien" style="shape=partialRectangle;connectable=0;fillColor=none;top=0;left=0;bottom=0;right=0;align=left;spacingLeft=6;overflow=hidden;" vertex="1" parent="p8rpuLsUjRu-5u2ALI-v-7">
          <mxGeometry x="30" width="150" height="30" as="geometry" />
        </mxCell>
        <mxCell id="p8rpuLsUjRu-5u2ALI-v-10" value="" style="shape=partialRectangle;collapsible=0;dropTarget=0;pointerEvents=0;fillColor=none;top=0;left=0;bottom=0;right=0;points=[[0,0.5],[1,0.5]];portConstraint=eastwest;" vertex="1" parent="QENsBfWK47Msr97pYz6I-13">
          <mxGeometry y="240" width="180" height="30" as="geometry" />
        </mxCell>
        <mxCell id="p8rpuLsUjRu-5u2ALI-v-11" value="" style="shape=partialRectangle;connectable=0;fillColor=none;top=0;left=0;bottom=0;right=0;editable=1;overflow=hidden;" vertex="1" parent="p8rpuLsUjRu-5u2ALI-v-10">
          <mxGeometry width="30" height="30" as="geometry" />
        </mxCell>
        <mxCell id="p8rpuLsUjRu-5u2ALI-v-12" value="ngayNhapKho" style="shape=partialRectangle;connectable=0;fillColor=none;top=0;left=0;bottom=0;right=0;align=left;spacingLeft=6;overflow=hidden;" vertex="1" parent="p8rpuLsUjRu-5u2ALI-v-10">
          <mxGeometry x="30" width="150" height="30" as="geometry" />
        </mxCell>
        <mxCell id="p8rpuLsUjRu-5u2ALI-v-13" value="" style="shape=partialRectangle;collapsible=0;dropTarget=0;pointerEvents=0;fillColor=none;top=0;left=0;bottom=0;right=0;points=[[0,0.5],[1,0.5]];portConstraint=eastwest;" vertex="1" parent="QENsBfWK47Msr97pYz6I-13">
          <mxGeometry y="270" width="180" height="30" as="geometry" />
        </mxCell>
        <mxCell id="p8rpuLsUjRu-5u2ALI-v-14" value="" style="shape=partialRectangle;connectable=0;fillColor=none;top=0;left=0;bottom=0;right=0;editable=1;overflow=hidden;" vertex="1" parent="p8rpuLsUjRu-5u2ALI-v-13">
          <mxGeometry width="30" height="30" as="geometry" />
        </mxCell>
        <mxCell id="p8rpuLsUjRu-5u2ALI-v-15" value="viTriDS" style="shape=partialRectangle;connectable=0;fillColor=none;top=0;left=0;bottom=0;right=0;align=left;spacingLeft=6;overflow=hidden;" vertex="1" parent="p8rpuLsUjRu-5u2ALI-v-13">
          <mxGeometry x="30" width="150" height="30" as="geometry" />
        </mxCell>
        <mxCell id="p8rpuLsUjRu-5u2ALI-v-16" value="" style="shape=partialRectangle;collapsible=0;dropTarget=0;pointerEvents=0;fillColor=none;top=0;left=0;bottom=0;right=0;points=[[0,0.5],[1,0.5]];portConstraint=eastwest;" vertex="1" parent="QENsBfWK47Msr97pYz6I-13">
          <mxGeometry y="300" width="180" height="30" as="geometry" />
        </mxCell>
        <mxCell id="p8rpuLsUjRu-5u2ALI-v-17" value="FK" style="shape=partialRectangle;connectable=0;fillColor=none;top=0;left=0;bottom=0;right=0;editable=1;overflow=hidden;" vertex="1" parent="p8rpuLsUjRu-5u2ALI-v-16">
          <mxGeometry width="30" height="30" as="geometry" />
        </mxCell>
        <mxCell id="p8rpuLsUjRu-5u2ALI-v-18" value="maLoaiSach" style="shape=partialRectangle;connectable=0;fillColor=none;top=0;left=0;bottom=0;right=0;align=left;spacingLeft=6;overflow=hidden;" vertex="1" parent="p8rpuLsUjRu-5u2ALI-v-16">
          <mxGeometry x="30" width="150" height="30" as="geometry" />
        </mxCell>
        <mxCell id="QENsBfWK47Msr97pYz6I-26" value="PhieuMuonSach" style="shape=table;startSize=30;container=1;collapsible=1;childLayout=tableLayout;fixedRows=1;rowLines=0;fontStyle=1;align=center;resizeLast=1;" vertex="1" parent="xq6mZ9nFL28TJ4dmC3tQ-1">
          <mxGeometry x="100" y="420" width="180" height="160" as="geometry" />
        </mxCell>
        <mxCell id="QENsBfWK47Msr97pYz6I-27" value="" style="shape=partialRectangle;collapsible=0;dropTarget=0;pointerEvents=0;fillColor=none;top=0;left=0;bottom=1;right=0;points=[[0,0.5],[1,0.5]];portConstraint=eastwest;" vertex="1" parent="QENsBfWK47Msr97pYz6I-26">
          <mxGeometry y="30" width="180" height="30" as="geometry" />
        </mxCell>
        <mxCell id="QENsBfWK47Msr97pYz6I-28" value="PK" style="shape=partialRectangle;connectable=0;fillColor=none;top=0;left=0;bottom=0;right=0;fontStyle=1;overflow=hidden;" vertex="1" parent="QENsBfWK47Msr97pYz6I-27">
          <mxGeometry width="30" height="30" as="geometry" />
        </mxCell>
        <mxCell id="QENsBfWK47Msr97pYz6I-29" value="maSoPhieu" style="shape=partialRectangle;connectable=0;fillColor=none;top=0;left=0;bottom=0;right=0;align=left;spacingLeft=6;fontStyle=5;overflow=hidden;" vertex="1" parent="QENsBfWK47Msr97pYz6I-27">
          <mxGeometry x="30" width="150" height="30" as="geometry" />
        </mxCell>
        <mxCell id="QENsBfWK47Msr97pYz6I-30" value="" style="shape=partialRectangle;collapsible=0;dropTarget=0;pointerEvents=0;fillColor=none;top=0;left=0;bottom=0;right=0;points=[[0,0.5],[1,0.5]];portConstraint=eastwest;" vertex="1" parent="QENsBfWK47Msr97pYz6I-26">
          <mxGeometry y="60" width="180" height="30" as="geometry" />
        </mxCell>
        <mxCell id="QENsBfWK47Msr97pYz6I-31" value="" style="shape=partialRectangle;connectable=0;fillColor=none;top=0;left=0;bottom=0;right=0;editable=1;overflow=hidden;" vertex="1" parent="QENsBfWK47Msr97pYz6I-30">
          <mxGeometry width="30" height="30" as="geometry" />
        </mxCell>
        <mxCell id="QENsBfWK47Msr97pYz6I-32" value="ngayMuon" style="shape=partialRectangle;connectable=0;fillColor=none;top=0;left=0;bottom=0;right=0;align=left;spacingLeft=6;overflow=hidden;" vertex="1" parent="QENsBfWK47Msr97pYz6I-30">
          <mxGeometry x="30" width="150" height="30" as="geometry" />
        </mxCell>
        <mxCell id="QENsBfWK47Msr97pYz6I-33" value="" style="shape=partialRectangle;collapsible=0;dropTarget=0;pointerEvents=0;fillColor=none;top=0;left=0;bottom=0;right=0;points=[[0,0.5],[1,0.5]];portConstraint=eastwest;" vertex="1" parent="QENsBfWK47Msr97pYz6I-26">
          <mxGeometry y="90" width="180" height="30" as="geometry" />
        </mxCell>
        <mxCell id="QENsBfWK47Msr97pYz6I-34" value="" style="shape=partialRectangle;connectable=0;fillColor=none;top=0;left=0;bottom=0;right=0;editable=1;overflow=hidden;" vertex="1" parent="QENsBfWK47Msr97pYz6I-33">
          <mxGeometry width="30" height="30" as="geometry" />
        </mxCell>
        <mxCell id="QENsBfWK47Msr97pYz6I-35" value="ngayTraSach" style="shape=partialRectangle;connectable=0;fillColor=none;top=0;left=0;bottom=0;right=0;align=left;spacingLeft=6;overflow=hidden;" vertex="1" parent="QENsBfWK47Msr97pYz6I-33">
          <mxGeometry x="30" width="150" height="30" as="geometry" />
        </mxCell>
        <mxCell id="QENsBfWK47Msr97pYz6I-36" value="" style="shape=partialRectangle;collapsible=0;dropTarget=0;pointerEvents=0;fillColor=none;top=0;left=0;bottom=0;right=0;points=[[0,0.5],[1,0.5]];portConstraint=eastwest;" vertex="1" parent="QENsBfWK47Msr97pYz6I-26">
          <mxGeometry y="120" width="180" height="30" as="geometry" />
        </mxCell>
        <mxCell id="QENsBfWK47Msr97pYz6I-37" value="FK" style="shape=partialRectangle;connectable=0;fillColor=none;top=0;left=0;bottom=0;right=0;editable=1;overflow=hidden;fontStyle=1" vertex="1" parent="QENsBfWK47Msr97pYz6I-36">
          <mxGeometry width="30" height="30" as="geometry" />
        </mxCell>
        <mxCell id="QENsBfWK47Msr97pYz6I-38" value="maSinhVien" style="shape=partialRectangle;connectable=0;fillColor=none;top=0;left=0;bottom=0;right=0;align=left;spacingLeft=6;overflow=hidden;" vertex="1" parent="QENsBfWK47Msr97pYz6I-36">
          <mxGeometry x="30" width="150" height="30" as="geometry" />
        </mxCell>
        <mxCell id="QENsBfWK47Msr97pYz6I-39" value="LoaiSach" style="shape=table;startSize=30;container=1;collapsible=1;childLayout=tableLayout;fixedRows=1;rowLines=0;fontStyle=1;align=center;resizeLast=1;" vertex="1" parent="xq6mZ9nFL28TJ4dmC3tQ-1">
          <mxGeometry x="560" y="490" width="180" height="100" as="geometry" />
        </mxCell>
        <mxCell id="QENsBfWK47Msr97pYz6I-40" value="" style="shape=partialRectangle;collapsible=0;dropTarget=0;pointerEvents=0;fillColor=none;top=0;left=0;bottom=1;right=0;points=[[0,0.5],[1,0.5]];portConstraint=eastwest;" vertex="1" parent="QENsBfWK47Msr97pYz6I-39">
          <mxGeometry y="30" width="180" height="30" as="geometry" />
        </mxCell>
        <mxCell id="QENsBfWK47Msr97pYz6I-41" value="PK" style="shape=partialRectangle;connectable=0;fillColor=none;top=0;left=0;bottom=0;right=0;fontStyle=1;overflow=hidden;" vertex="1" parent="QENsBfWK47Msr97pYz6I-40">
          <mxGeometry width="30" height="30" as="geometry" />
        </mxCell>
        <mxCell id="QENsBfWK47Msr97pYz6I-42" value="maLoaiSach" style="shape=partialRectangle;connectable=0;fillColor=none;top=0;left=0;bottom=0;right=0;align=left;spacingLeft=6;fontStyle=5;overflow=hidden;" vertex="1" parent="QENsBfWK47Msr97pYz6I-40">
          <mxGeometry x="30" width="150" height="30" as="geometry" />
        </mxCell>
        <mxCell id="QENsBfWK47Msr97pYz6I-43" value="" style="shape=partialRectangle;collapsible=0;dropTarget=0;pointerEvents=0;fillColor=none;top=0;left=0;bottom=0;right=0;points=[[0,0.5],[1,0.5]];portConstraint=eastwest;" vertex="1" parent="QENsBfWK47Msr97pYz6I-39">
          <mxGeometry y="60" width="180" height="30" as="geometry" />
        </mxCell>
        <mxCell id="QENsBfWK47Msr97pYz6I-44" value="" style="shape=partialRectangle;connectable=0;fillColor=none;top=0;left=0;bottom=0;right=0;editable=1;overflow=hidden;" vertex="1" parent="QENsBfWK47Msr97pYz6I-43">
          <mxGeometry width="30" height="30" as="geometry" />
        </mxCell>
        <mxCell id="QENsBfWK47Msr97pYz6I-45" value="tenLoaiSach" style="shape=partialRectangle;connectable=0;fillColor=none;top=0;left=0;bottom=0;right=0;align=left;spacingLeft=6;overflow=hidden;" vertex="1" parent="QENsBfWK47Msr97pYz6I-43">
          <mxGeometry x="30" width="150" height="30" as="geometry" />
        </mxCell>
        <mxCell id="p8rpuLsUjRu-5u2ALI-v-0" value="" style="edgeStyle=orthogonalEdgeStyle;fontSize=12;html=1;endArrow=ERzeroToMany;startArrow=ERmandOne;exitX=0;exitY=0.5;exitDx=0;exitDy=0;entryX=0;entryY=0.5;entryDx=0;entryDy=0;" edge="1" parent="xq6mZ9nFL28TJ4dmC3tQ-1" source="QENsBfWK47Msr97pYz6I-1" target="QENsBfWK47Msr97pYz6I-36">
          <mxGeometry width="100" height="100" relative="1" as="geometry">
            <mxPoint x="350" y="370" as="sourcePoint" />
            <mxPoint x="450" y="270" as="targetPoint" />
            <Array as="points">
              <mxPoint x="60" y="135" />
              <mxPoint x="60" y="555" />
            </Array>
          </mxGeometry>
        </mxCell>
        <mxCell id="p8rpuLsUjRu-5u2ALI-v-19" value="" style="edgeStyle=entityRelationEdgeStyle;fontSize=12;html=1;endArrow=ERzeroToMany;startArrow=ERmandOne;exitX=1;exitY=0.5;exitDx=0;exitDy=0;entryX=1;entryY=0.5;entryDx=0;entryDy=0;" edge="1" parent="xq6mZ9nFL28TJ4dmC3tQ-1" source="QENsBfWK47Msr97pYz6I-40" target="p8rpuLsUjRu-5u2ALI-v-16">
          <mxGeometry width="100" height="100" relative="1" as="geometry">
            <mxPoint x="420" y="500" as="sourcePoint" />
            <mxPoint x="520" y="400" as="targetPoint" />
          </mxGeometry>
        </mxCell>
        <mxCell id="p8rpuLsUjRu-5u2ALI-v-20" value="PhieuMuonSach_ChiTiet" style="shape=table;startSize=30;container=1;collapsible=1;childLayout=tableLayout;fixedRows=1;rowLines=0;fontStyle=1;align=center;resizeLast=1;" vertex="1" parent="xq6mZ9nFL28TJ4dmC3tQ-1">
          <mxGeometry x="330" y="270" width="180" height="130" as="geometry" />
        </mxCell>
        <mxCell id="p8rpuLsUjRu-5u2ALI-v-21" value="" style="shape=partialRectangle;collapsible=0;dropTarget=0;pointerEvents=0;fillColor=none;top=0;left=0;bottom=0;right=0;points=[[0,0.5],[1,0.5]];portConstraint=eastwest;" vertex="1" parent="p8rpuLsUjRu-5u2ALI-v-20">
          <mxGeometry y="30" width="180" height="30" as="geometry" />
        </mxCell>
        <mxCell id="p8rpuLsUjRu-5u2ALI-v-22" value="PK,FK1" style="shape=partialRectangle;connectable=0;fillColor=none;top=0;left=0;bottom=0;right=0;fontStyle=1;overflow=hidden;" vertex="1" parent="p8rpuLsUjRu-5u2ALI-v-21">
          <mxGeometry width="60" height="30" as="geometry" />
        </mxCell>
        <mxCell id="p8rpuLsUjRu-5u2ALI-v-23" value="maSoPhieu" style="shape=partialRectangle;connectable=0;fillColor=none;top=0;left=0;bottom=0;right=0;align=left;spacingLeft=6;fontStyle=5;overflow=hidden;" vertex="1" parent="p8rpuLsUjRu-5u2ALI-v-21">
          <mxGeometry x="60" width="120" height="30" as="geometry" />
        </mxCell>
        <mxCell id="p8rpuLsUjRu-5u2ALI-v-24" value="" style="shape=partialRectangle;collapsible=0;dropTarget=0;pointerEvents=0;fillColor=none;top=0;left=0;bottom=1;right=0;points=[[0,0.5],[1,0.5]];portConstraint=eastwest;" vertex="1" parent="p8rpuLsUjRu-5u2ALI-v-20">
          <mxGeometry y="60" width="180" height="30" as="geometry" />
        </mxCell>
        <mxCell id="p8rpuLsUjRu-5u2ALI-v-25" value="PK,FK2" style="shape=partialRectangle;connectable=0;fillColor=none;top=0;left=0;bottom=0;right=0;fontStyle=1;overflow=hidden;" vertex="1" parent="p8rpuLsUjRu-5u2ALI-v-24">
          <mxGeometry width="60" height="30" as="geometry" />
        </mxCell>
        <mxCell id="p8rpuLsUjRu-5u2ALI-v-26" value="maSach" style="shape=partialRectangle;connectable=0;fillColor=none;top=0;left=0;bottom=0;right=0;align=left;spacingLeft=6;fontStyle=5;overflow=hidden;" vertex="1" parent="p8rpuLsUjRu-5u2ALI-v-24">
          <mxGeometry x="60" width="120" height="30" as="geometry" />
        </mxCell>
        <mxCell id="p8rpuLsUjRu-5u2ALI-v-27" value="" style="shape=partialRectangle;collapsible=0;dropTarget=0;pointerEvents=0;fillColor=none;top=0;left=0;bottom=0;right=0;points=[[0,0.5],[1,0.5]];portConstraint=eastwest;" vertex="1" parent="p8rpuLsUjRu-5u2ALI-v-20">
          <mxGeometry y="90" width="180" height="30" as="geometry" />
        </mxCell>
        <mxCell id="p8rpuLsUjRu-5u2ALI-v-28" value="" style="shape=partialRectangle;connectable=0;fillColor=none;top=0;left=0;bottom=0;right=0;editable=1;overflow=hidden;" vertex="1" parent="p8rpuLsUjRu-5u2ALI-v-27">
          <mxGeometry width="60" height="30" as="geometry" />
        </mxCell>
        <mxCell id="p8rpuLsUjRu-5u2ALI-v-29" value="ghiChu" style="shape=partialRectangle;connectable=0;fillColor=none;top=0;left=0;bottom=0;right=0;align=left;spacingLeft=6;overflow=hidden;" vertex="1" parent="p8rpuLsUjRu-5u2ALI-v-27">
          <mxGeometry x="60" width="120" height="30" as="geometry" />
        </mxCell>
        <mxCell id="p8rpuLsUjRu-5u2ALI-v-36" value="" style="edgeStyle=entityRelationEdgeStyle;fontSize=12;html=1;endArrow=ERzeroToMany;startArrow=ERmandOne;" edge="1" parent="xq6mZ9nFL28TJ4dmC3tQ-1" source="QENsBfWK47Msr97pYz6I-14" target="p8rpuLsUjRu-5u2ALI-v-24">
          <mxGeometry width="100" height="100" relative="1" as="geometry">
            <mxPoint x="750" y="545" as="sourcePoint" />
            <mxPoint x="490" y="170" as="targetPoint" />
          </mxGeometry>
        </mxCell>
        <mxCell id="p8rpuLsUjRu-5u2ALI-v-37" value="" style="edgeStyle=entityRelationEdgeStyle;fontSize=12;html=1;endArrow=ERzeroToMany;startArrow=ERmandOne;entryX=0;entryY=0.5;entryDx=0;entryDy=0;exitX=1;exitY=0.5;exitDx=0;exitDy=0;" edge="1" parent="xq6mZ9nFL28TJ4dmC3tQ-1" source="QENsBfWK47Msr97pYz6I-27" target="p8rpuLsUjRu-5u2ALI-v-21">
          <mxGeometry width="100" height="100" relative="1" as="geometry">
            <mxPoint x="360" y="560" as="sourcePoint" />
            <mxPoint x="280" y="460" as="targetPoint" />
          </mxGeometry>
        </mxCell>
      </root>
    </mxGraphModel>
  </diagram>
</mxfile>
